<svg xmlns="http://www.w3.org/2000/svg"  viewBox="0 0 100 100" width="100px" height="100px"><polygon fill="#fed5b3" points="84,74 61.5,81 38.5,74 16,81 16,26 38.5,19 61.5,26 84,19"/><polygon fill="#fae8e6" points="62,25.844 61.5,26 38.5,19 38,19.156 38,74.156 38.5,74 61.5,81 62,80.844"/><path fill="#1f212b" d="M16,82c-0.211,0-0.419-0.067-0.593-0.195C15.151,81.617,15,81.318,15,81V26	c0-0.438,0.285-0.825,0.703-0.955l22.5-7c0.19-0.059,0.396-0.059,0.588-0.001l22.706,6.91l22.206-6.909	c0.302-0.095,0.633-0.038,0.89,0.15C84.849,18.383,85,18.682,85,19v55c0,0.438-0.285,0.825-0.703,0.955l-22.5,7	c-0.19,0.06-0.396,0.06-0.588,0.001l-22.706-6.91l-22.206,6.909C16.2,81.985,16.1,82,16,82z M38.5,73	c0.098,0,0.196,0.015,0.291,0.043l22.706,6.91L83,73.264V20.358l-21.203,6.597c-0.19,0.06-0.396,0.061-0.588,0.001l-22.706-6.91	L17,26.736v52.905l21.203-6.597C38.3,73.015,38.399,73,38.5,73z"/><path fill="#1f212b" d="M38.5,49c-0.276,0-0.5-0.224-0.5-0.5v-29c0-0.276,0.224-0.5,0.5-0.5s0.5,0.224,0.5,0.5v29	C39,48.776,38.776,49,38.5,49z"/><path fill="#1f212b" d="M61.5,30c-0.276,0-0.5-0.224-0.5-0.5V26c0-0.276,0.224-0.5,0.5-0.5S62,25.724,62,26v3.5	C62,29.776,61.776,30,61.5,30z"/><path fill="#1f212b" d="M61.5,78c-0.276,0-0.5-0.224-0.5-0.5v-2c0-0.276,0.224-0.5,0.5-0.5s0.5,0.224,0.5,0.5v2	C62,77.776,61.776,78,61.5,78z"/><path fill="#1f212b" d="M61.5,72.813c-0.276,0-0.5-0.224-0.5-0.5V65.5c0-0.276,0.224-0.5,0.5-0.5s0.5,0.224,0.5,0.5v6.813	C62,72.589,61.776,72.813,61.5,72.813z"/><path fill="#1f212b" d="M61.5,62.875c-0.276,0-0.5-0.224-0.5-0.5V38.5c0-0.276,0.224-0.5,0.5-0.5s0.5,0.224,0.5,0.5v23.875	C62,62.651,61.776,62.875,61.5,62.875z"/><path fill="#1f212b" d="M38.5,58c-0.276,0-0.5-0.224-0.5-0.5v-6c0-0.276,0.224-0.5,0.5-0.5s0.5,0.224,0.5,0.5v6	C39,57.776,38.776,58,38.5,58z"/><path fill="#1f212b" d="M38.5,75c-0.276,0-0.5-0.224-0.5-0.5v-14c0-0.276,0.224-0.5,0.5-0.5s0.5,0.224,0.5,0.5v14	C39,74.776,38.776,75,38.5,75z"/><path fill="#f15b6c" d="M88,26.959C88,38,73,53,73,53S58,38,58,26.959C58,18.698,64.717,12,73,12S88,18.698,88,26.959z"/><path fill="#fefdef" d="M73.015,35.5c-4.691,0-8.509-3.814-8.509-8.5s3.818-8.5,8.509-8.5s8.509,3.814,8.509,8.5	S77.706,35.5,73.015,35.5z"/><path fill="#1f212b" d="M73,54c-0.256,0-0.512-0.098-0.707-0.293C71.669,53.083,57,38.284,57,26.959	C57,18.159,64.178,11,73,11s16,7.159,16,15.959c0,11.325-14.669,26.123-15.293,26.748C73.512,53.902,73.256,54,73,54z M73,13	c-7.72,0-14,6.262-14,13.959c0,9.15,11.063,21.486,14,24.598c2.937-3.112,14-15.448,14-24.598C87,19.262,80.72,13,73,13z"/><path fill="#1f212b" d="M73.015,36c-4.967,0-9.008-4.038-9.008-9s4.041-9,9.008-9c4.968,0,9.009,4.038,9.009,9	S77.982,36,73.015,36z M73.015,19c-4.415,0-8.008,3.589-8.008,8s3.593,8,8.008,8c4.416,0,8.009-3.589,8.009-8S77.431,19,73.015,19z"/><path fill="#1f212b" d="M73.015,39c-6.623,0-12.011-5.383-12.011-12s5.388-12,12.011-12c1.627,0,3.208,0.323,4.701,0.959	c0.254,0.108,0.372,0.402,0.264,0.656c-0.107,0.254-0.4,0.372-0.656,0.264C75.955,16.296,74.506,16,73.015,16	c-6.071,0-11.011,4.935-11.011,11s4.939,11,11.011,11c5.905,0,10.731-4.622,10.986-10.521c0.012-0.275,0.234-0.509,0.521-0.478	c0.276,0.012,0.49,0.245,0.479,0.521C84.722,33.958,79.457,39,73.015,39z"/><path fill="#1f212b" d="M81.722,20c-0.14,0-0.279-0.059-0.378-0.173c-0.629-0.728-1.337-1.364-2.105-1.892	c-0.228-0.156-0.285-0.468-0.129-0.695c0.156-0.227,0.468-0.285,0.695-0.129c0.839,0.576,1.611,1.27,2.295,2.062	c0.181,0.209,0.158,0.525-0.051,0.706C81.954,19.96,81.838,20,81.722,20z"/><path fill="#1f212b" d="M83.978,24c-0.212,0-0.408-0.135-0.476-0.347c-0.105-0.325-0.225-0.644-0.358-0.956	c-0.108-0.254,0.01-0.548,0.263-0.656c0.257-0.109,0.549,0.009,0.657,0.263c0.146,0.34,0.276,0.688,0.39,1.044	c0.085,0.263-0.06,0.544-0.322,0.629C84.08,23.992,84.028,24,83.978,24z"/></svg>