<svg xmlns="http://www.w3.org/2000/svg"  viewBox="0 0 80 80" width="16px" height="16px"><path fill="#b0c1d4" d="M2.5 77.5L2.5 72.5 37.5 72.5 37.5 51.5 42.5 51.5 42.5 72.5 77.5 72.5 77.5 77.5z"/><path fill="#66798f" d="M42,52v20v1h1h34v4H3v-4h34h1v-1V52H42 M43,51h-6v21H2v6h76v-6H43V51L43,51z"/><path fill="#bae0bd" d="M24.5 78.5L24.5 71.5 36.5 71.5 36.5 65.5 43.5 65.5 43.5 71.5 55.5 71.5 55.5 78.5z"/><path fill="#5e9c76" d="M43,66v5v1h1h11v6H25v-6h11h1v-1v-5H43 M44,65h-8v6H24v8h32v-8H44V65L44,65z"/><path fill="#8bb7f0" d="M2.5 57.5L2.5 42.051 10.552 2.5 69.448 2.5 77.5 42.051 77.5 57.5z"/><path fill="#4e7ab5" d="M69.04,3L77,42.101V57H3V42.101L10.96,3H69.04 M69.857,2H10.143L2,42v16h76V42L69.857,2L69.857,2z"/><path fill="#c2e8ff" d="M76.98 42L3.019 42 11 3 69 3z"/><path fill="#fff" d="M69 46A3 3 0 1 0 69 52 3 3 0 1 0 69 46zM19 46A3 3 0 1 0 19 52 3 3 0 1 0 19 46zM27 46A3 3 0 1 0 27 52 3 3 0 1 0 27 46zM11 46A3 3 0 1 0 11 52 3 3 0 1 0 11 46z"/><path fill="#4e7ab5" d="M61.477,22.737l-2.527-2.527c-9.033-8.627-30.263-7.637-37.9,0l-2.527,2.527	c-0.698,0.698-0.698,1.829,0,2.527l5.054,5.053c0.698,0.698,1.829,0.698,2.527,0l4.723-4.723v-6.667	c1.783-1.783,16.593-1.783,18.376,0v6.696l4.694,4.694c0.698,0.698,1.829,0.698,2.527,0l5.054-5.053	C62.174,24.566,62.174,23.435,61.477,22.737z"/></svg>